<?xml version="1.0" standalone="no"?>
<!DOCTYPE svg PUBLIC "-//W3C//DTD SVG 20010904//EN"
 "http://www.w3.org/TR/2001/REC-SVG-20010904/DTD/svg10.dtd">
<svg version="1.0" xmlns="http://www.w3.org/2000/svg"
 width="200.000000pt" height="200.000000pt" viewBox="0 0 200.000000 200.000000"
 preserveAspectRatio="xMidYMid meet">

<g transform="translate(0.000000,200.000000) scale(0.100000,-0.100000)"
fill="#000000" stroke="none">
<path d="M0 1645 l0 -355 39 20 c22 11 42 28 44 37 4 15 5 14 6 -3 0 -11 -8
-29 -19 -39 -11 -10 -18 -20 -16 -23 3 -2 -1 -10 -7 -17 -9 -10 -15 -10 -26
-2 -11 10 -13 8 -7 -11 5 -13 3 -22 -3 -22 -8 0 -11 -186 -11 -615 l0 -616 22
21 c12 11 25 20 30 20 4 0 8 124 8 275 0 177 4 275 10 275 16 0 13 -577 -2
-583 -7 -3 -3 -6 10 -6 12 -1 22 5 22 11 0 27 53 150 67 155 32 13 33 -14 3
-78 -16 -35 -30 -70 -30 -76 0 -29 40 -9 88 43 52 56 79 65 75 25 -2 -12 3
-21 11 -21 7 0 19 -13 26 -30 12 -29 14 -30 83 -30 70 0 70 0 52 20 -28 31
-14 32 44 4 29 -15 55 -24 58 -21 8 9 -56 46 -99 58 -21 5 -38 14 -38 20 0 5
-6 4 -14 -3 -10 -9 -11 -17 -3 -26 19 -24 -7 -31 -43 -12 -32 17 -33 19 -15
26 11 4 28 18 38 30 64 82 258 31 292 -77 4 -13 16 -19 36 -19 35 0 37 9 5 40
-25 22 -56 97 -56 131 0 10 -12 53 -26 96 -22 67 -25 90 -21 166 2 48 8 91 11
95 9 9 40 -30 72 -90 13 -27 31 -48 38 -48 21 0 14 -47 -9 -64 -18 -13 -18
-15 -1 -56 10 -24 26 -55 36 -69 10 -14 19 -35 21 -46 4 -16 13 -20 64 -22 95
-4 104 -8 111 -52 12 -76 26 -81 240 -81 157 0 179 2 203 19 36 26 133 58 202
66 73 9 127 -7 172 -50 25 -24 45 -35 67 -35 l30 0 0 305 c0 197 4 305 10 305
6 0 10 -108 10 -305 l0 -305 45 0 45 0 0 490 0 490 -32 30 c-18 16 -39 30 -46
30 -9 0 -6 12 8 40 20 40 20 41 2 77 l-19 37 27 23 c15 13 35 23 44 23 14 0
16 16 16 116 0 113 0 115 -21 109 -15 -5 -20 -3 -17 6 3 8 -1 19 -8 26 -17 18
-29 16 -15 -1 8 -10 9 -21 3 -33 -5 -10 -12 -33 -16 -52 -3 -19 -13 -42 -22
-52 -9 -10 -21 -37 -28 -61 -17 -54 -32 -47 -28 13 2 43 0 47 -27 59 -33 13
-130 12 -148 -3 -7 -5 -19 -7 -28 -4 -8 4 -17 2 -20 -3 -4 -6 -18 -10 -31 -10
-33 0 -27 24 7 28 49 6 129 35 129 47 0 14 -60 26 -75 16 -16 -12 -105 -12
-105 0 0 13 13 17 103 24 67 6 77 9 77 26 0 10 -7 19 -15 19 -8 0 -15 5 -15
10 0 6 11 10 25 10 35 0 31 18 -12 62 -48 49 -34 63 15 15 33 -32 46 -38 100
-43 l62 -7 0 220 0 220 -125 2 c-105 1 -125 -2 -125 -14 0 -10 -10 -15 -30
-15 -25 0 -30 -4 -36 -35 -3 -19 -11 -35 -16 -35 -6 0 -8 10 -4 23 4 12 9 34
12 50 l6 27 -526 0 c-507 0 -528 -1 -566 -20 -50 -26 -122 -25 -179 0 -33 15
-65 20 -132 20 l-90 0 3 -314 c2 -248 0 -310 -9 -297 -9 12 -12 95 -13 314 l0
297 -30 0 -30 0 0 -355z m1646 -96 c24 -6 44 -15 44 -20 0 -11 1 -11 -60 2
-27 6 -50 15 -50 20 0 12 12 11 66 -2z m-1226 -19 c0 -5 -5 -10 -11 -10 -5 0
-7 5 -4 10 3 6 8 10 11 10 2 0 4 -4 4 -10z m1170 -35 c0 -2 -10 -9 -22 -15
-22 -11 -22 -10 -4 4 21 17 26 19 26 11z m-1304 -62 c-4 -16 -9 -37 -12 -48
-4 -16 -2 -15 9 4 15 25 15 24 22 -17 7 -43 25 -58 25 -22 0 34 20 22 21 -12
0 -28 2 -30 10 -13 6 14 8 3 5 -38 -3 -48 -9 -64 -32 -88 -16 -16 -39 -32 -51
-35 -13 -4 -23 -11 -24 -18 -3 -44 -16 -79 -28 -71 -5 3 -13 0 -17 -6 -4 -8
-3 -9 4 -5 18 11 14 -6 -6 -30 -10 -12 -29 -21 -42 -20 -26 1 -95 58 -111 91
-6 11 1 7 15 -10 l26 -30 1 30 c0 29 17 81 18 60 1 -5 6 -3 11 5 9 13 11 13
20 0 5 -8 11 -19 13 -24 4 -11 87 3 87 14 0 4 -9 6 -20 3 -15 -4 -30 5 -55 31
-29 31 -35 45 -35 82 0 46 27 127 40 119 4 -2 16 5 26 17 17 18 73 58 83 58 2
0 0 -12 -3 -27z m632 12 c12 -4 22 -14 22 -25 0 -31 11 -49 26 -43 8 3 14 0
14 -6 0 -6 7 -11 15 -11 8 0 15 -6 15 -14 0 -15 26 -69 31 -65 6 4 69 -19 69
-26 0 -3 -26 -5 -57 -4 -32 1 -85 -6 -119 -16 -48 -13 -69 -15 -98 -6 -48 13
-165 8 -195 -9 l-24 -12 7 53 c8 59 36 106 72 119 14 6 24 18 24 29 0 22 16
29 85 36 27 3 51 7 53 10 5 5 11 4 60 -10z m602 -25 c-6 -11 -13 -20 -16 -20
-2 0 0 9 6 20 6 11 13 20 16 20 2 0 0 -9 -6 -20z m-50 -80 c-6 -11 -15 -20
-19 -20 -16 0 -42 -51 -58 -116 -14 -55 -14 -75 -4 -132 13 -72 43 -147 54
-135 4 3 7 -1 7 -9 0 -20 -14 -25 -52 -20 l-28 4 0 210 0 209 33 14 c17 8 42
14 55 15 20 0 21 -3 12 -20z m370 -106 c53 -82 60 -112 36 -167 -13 -30 -86
-110 -86 -93 0 4 -6 4 -12 -1 -18 -11 -78 -13 -78 -3 0 9 -58 25 -77 21 -21
-3 -93 19 -93 29 0 6 6 10 13 10 6 0 30 9 52 19 l40 19 -59 -6 c-53 -5 -58 -3
-54 14 2 11 30 35 63 54 l59 35 -38 3 c-35 3 -37 4 -20 17 18 13 16 14 -16 15
l-35 1 25 14 c14 8 42 19 63 25 20 6 37 15 37 20 0 6 9 10 20 10 11 0 20 4 20
10 0 6 9 6 26 0 14 -6 30 -7 36 -4 6 4 14 0 19 -7 4 -7 11 -10 15 -6 10 10
-17 39 -33 33 -7 -3 -13 -1 -13 4 0 6 9 10 20 10 13 0 35 -24 70 -76z m-413
-26 c-3 -7 -5 -2 -5 12 0 14 2 19 5 13 2 -7 2 -19 0 -25z m-1014 -51 c18 -38
16 -100 -4 -112 -4 -3 -6 -12 -3 -20 3 -7 0 -23 -6 -35 -9 -17 -14 -19 -26 -9
-17 14 -19 70 -2 87 9 9 9 12 0 12 -7 0 -12 -4 -12 -10 0 -5 -4 -10 -10 -10
-5 0 -10 6 -10 14 0 7 -7 19 -15 26 -17 14 -20 50 -4 50 6 0 8 7 5 16 -6 14
-4 15 9 4 9 -7 15 -9 14 -4 -9 50 39 44 64 -9z m296 32 c30 -11 44 -39 19 -39
-9 0 -8 -3 2 -9 10 -7 2 -13 -33 -22 -48 -12 -55 -29 -12 -29 13 0 28 -7 33
-16 7 -13 17 -15 43 -10 19 4 44 8 56 9 23 2 44 17 24 17 -14 0 -8 49 11 87
l11 23 19 -30 c23 -39 23 -51 -3 -74 -15 -12 -18 -21 -11 -28 10 -10 0 -41
-18 -58 -3 -3 -16 -18 -30 -35 -14 -16 -34 -30 -45 -30 -13 0 -20 -7 -20 -20
0 -16 6 -20 28 -18 26 2 31 -5 30 -44 -1 -17 2 -16 22 3 15 15 17 15 30 -2 8
-11 15 -22 15 -25 0 -7 -36 -16 -100 -25 -19 -3 -44 -10 -56 -15 -11 -6 -26
-9 -33 -7 -15 3 -39 -28 -29 -38 4 -3 28 1 54 10 46 15 118 13 129 -4 3 -4
-15 -13 -39 -19 -24 -6 -46 -18 -50 -26 -6 -16 5 -22 68 -41 16 -5 34 -17 40
-27 9 -15 4 -23 -29 -52 -22 -19 -51 -38 -65 -41 -14 -4 -38 -13 -53 -21 -26
-13 -29 -12 -64 24 -58 61 -75 111 -86 256 -8 108 -7 142 7 212 26 135 36 159
71 166 17 4 30 7 31 8 1 0 15 -4 33 -10z m708 -41 c-3 -7 -5 -2 -5 12 0 14 2
19 5 13 2 -7 2 -19 0 -25z m-892 -18 c-3 -5 -11 -10 -16 -10 -6 0 -7 5 -4 10
3 6 11 10 16 10 6 0 7 -4 4 -10z m605 -103 c13 -8 20 -23 20 -45 0 -45 -14
-68 -49 -80 -41 -14 -57 7 -64 87 l-5 63 39 -6 c22 -4 49 -12 59 -19z m-1005
-16 c9 -19 11 -32 5 -36 -6 -3 -15 6 -20 20 -19 51 -9 62 15 16z m158 2 c-13
-2 -35 -2 -50 0 -16 2 -5 4 22 4 28 0 40 -2 28 -4z m133 -139 c6 -55 3 -67
-26 -128 -26 -55 -34 -65 -46 -55 -11 9 -14 8 -14 -7 0 -14 -2 -16 -9 -6 -6
10 -10 7 -15 -12 -6 -23 -9 -25 -20 -13 -14 14 -21 50 -31 160 -7 74 0 81 36
42 13 -13 28 -25 32 -25 5 0 7 25 5 55 -1 30 0 55 5 55 8 0 10 -20 7 -62 -3
-46 17 -40 31 10 7 26 13 53 12 61 -1 11 1 11 13 -1 8 -7 17 -41 20 -74z
m1370 57 c-3 -5 -14 -11 -25 -14 -14 -3 -18 -1 -14 9 3 8 14 14 25 14 10 0 17
-4 14 -9z m122 -176 c-1 -58 -5 -108 -10 -111 -4 -3 -8 45 -8 105 0 65 4 111
10 111 5 0 9 -44 8 -105z m-1763 34 c62 -16 77 -36 33 -44 -48 -9 -110 0 -123
19 -7 8 -16 12 -20 8 -5 -4 -5 -1 -1 6 4 7 12 10 17 7 5 -4 9 -1 9 4 0 14 30
14 85 0z"/>
<path d="M195 1330 c3 -5 8 -10 11 -10 2 0 4 5 4 10 0 6 -5 10 -11 10 -5 0 -7
-4 -4 -10z"/>
<path d="M150 1260 c0 -5 5 -10 11 -10 5 0 7 5 4 10 -3 6 -8 10 -11 10 -2 0
-4 -4 -4 -10z"/>
<path d="M1687 1233 c-10 -9 -9 -51 1 -57 4 -2 8 11 8 30 0 37 0 37 -9 27z"/>
<path d="M1718 1103 c6 -2 18 -2 25 0 6 3 1 5 -13 5 -14 0 -19 -2 -12 -5z"/>
<path d="M1684 1056 c-9 -23 0 -59 14 -64 11 -3 12 0 3 15 -5 11 -7 29 -4 41
6 24 -4 30 -13 8z"/>
<path d="M1910 1775 c0 -189 2 -225 14 -225 8 0 18 5 21 10 3 6 17 10 31 10
l24 0 0 215 0 215 -45 0 -45 0 0 -225z"/>
<path d="M1797 1495 c-20 -42 -23 -95 -4 -95 6 1 28 14 47 30 l34 30 -32 0
-33 0 15 29 c14 26 13 41 -4 41 -3 0 -14 -16 -23 -35z"/>
</g>
</svg>
